<svg xmlns="http://www.w3.org/2000/svg" xmlns:xlink="http://www.w3.org/1999/xlink" id="Layer_1" x="0px" y="0px" viewBox="0 0 505 178" style="enable-background:new 0 0 505 178;" xml:space="preserve"><style type="text/css">	.st0{fill:#231F20;}</style><g>	<path class="st0" d="M28,79.1h25.5v25.4H28V178H0V0h66.9v25.4H28V79.1z"></path>	<path class="st0" d="M144.8,178v-21.9v-28c0-16.5-5.6-22.6-18.3-22.6h-9.7V178h-28V0H131c29,0,41.4,13.5,41.4,40.9v14  c0,18.3-5.8,30.3-18.3,36.1c14,5.8,18.6,19.3,18.6,37.9v27.5V178H144.8z M116.8,25.5v54.7h10.9c10.4,0,16.8-4.6,16.8-18.8V43.8  c0-12.7-4.3-18.3-14.2-18.3H116.8z"></path>	<path class="st0" d="M199.5,0h28V178h-28V0z"></path>	<path class="st0" d="M300.5,0h-44.2v137.4c0.9,0,1.5,0,1.6,0h22.4c0.2,0,2,0,4,0v-112H300c8.9,0,14.2,4.6,14.2,17.3v92.5  c0,12.7-5.3,17.3-14.2,17.3h-15.8l0,0c-1.9,0-3.8,0-4,0h2.4c-0.1,0-25.5,0-26.3,0V178h44.2c28,0,41.7-15.5,41.7-44V44  C342.2,15.5,328.5,0,300.5,0z"></path>	<path class="st0" d="M372,0h28V178h-28V0z"></path>	<path class="st0" d="M456.7,75h27.8v25.4h-27.8v52.1H505V178h-76.3V0H505v25.4h-48.3V75z"></path></g></svg>